<?xml version="1.0" encoding="utf-8"?>
<!-- Generator: Adobe Illustrator 24.0.1, SVG Export Plug-In . SVG Version: 6.00 Build 0)  -->
<svg version="1.1" id="Capa_1" xmlns="http://www.w3.org/2000/svg" xmlns:xlink="http://www.w3.org/1999/xlink" x="0px" y="0px"
	 viewBox="0 0 414.3 414.3" style="enable-background:new 0 0 414.3 414.3;" xml:space="preserve">
<style type="text/css">
	.st0{fill:none;stroke:#FFE115;stroke-width:21;stroke-miterlimit:10;}
	.st1{fill:none;stroke:#364A86;stroke-width:21;stroke-miterlimit:10;}
	.st2{fill:none;stroke:#F42200;stroke-width:21;stroke-miterlimit:10;}
</style>
<path class="st0" d="M215.8,441.1L43.5,355.8C31.8,350,27,335.8,32.8,324l134-270.5c5.8-11.7,20-16.5,31.7-10.7l172.2,85.3
	c11.7,5.8,16.5,20,10.7,31.7l-134,270.5C241.7,442.1,227.5,446.9,215.8,441.1z"/>
<path class="st1" d="M243.8,391.6L54.5,358.3c-12.9-2.3-21.5-14.5-19.2-27.4L87.5,33.6c2.3-12.9,14.5-21.5,27.4-19.2l189.3,33.2
	c12.9,2.3,21.5,14.5,19.2,27.4l-52.2,297.3C269,385.2,256.7,393.8,243.8,391.6z"/>
<path class="st2" d="M244.4,351.6l-192.1,5.3c-13.1,0.4-24-9.9-24.3-23L19.6,32.1c-0.4-13.1,9.9-24,23-24.3l192.1-5.3
	c13.1-0.4,24,9.9,24.3,23l8.3,301.7C267.8,340.3,257.5,351.2,244.4,351.6z"/>
</svg>
